<?xml version="1.0" encoding="utf-8"?>
<!-- Generator: Adobe Illustrator 28.3.0, SVG Export Plug-In . SVG Version: 6.00 Build 0)  -->
<svg version="1.1" id="Layer_1" xmlns="http://www.w3.org/2000/svg" xmlns:xlink="http://www.w3.org/1999/xlink" x="0px" y="0px"
	 viewBox="0 0 251 251" style="enable-background:new 0 0 251 251;" xml:space="preserve">
<style type="text/css">
	.st0{fill:#1A5F7D;}
	.st1{fill:#EEE8A9;}
</style>
<circle class="st0" cx="125.5" cy="125.5" r="125.5"/>
<path class="st1" d="M226.4,124.9c-1-3.9-3.9-6.6-7.8-7.1c-5-0.8-9.3-0.1-14.9,1.8c-3.7-2.1-8.7-4.3-15-6.5c-6.6-2.5-11-4-14.7-7
	c0.1-0.2,0.2-0.5,0.5-1c0.7-1.1,1.6-2.2,2.7-3.1c8.3-7.6,18.5-13.2,30.2-16.5l0.8-0.2c1.7-0.5,3.1-0.8,4.2-1
	c-1.5,2.8-5.6,7.6-8.6,10.1c-5.4,4.1-3.8,12,2.8,13.1c3,0.3,6.7-1.2,7.9-4.2c0,0,0,0,0,0l0.3-0.3c4.3-4.3,7.8-8.8,10.5-13.4
	c1.6-2.8,2.4-5.7,2.4-8.5c0-5.3-3-9.1-8.3-10.6l-0.2-0.1c-3.9-0.8-7.7-0.6-11.7,0.3c-7.1,1.4-14.2,4.1-21.3,8
	c-9.8,5.7-22.6,13.6-25.6,22.8c0-0.5,0-0.9,0-1.4c-0.1-9.5-1.3-17-7.5-23.3c-4.7-4.6-10.5-6.9-17.1-6.9c-11.5,0-23.4,3.5-33.3,10
	c-2.9,1.6-5.1,3.1-6.9,4.6l-0.3,0.3c-3.3,3.5-3.7,6.4-2.3,9.7l0.2,0.4c1.1,1.8,2.9,2.9,4.9,3.2c4,0.2,9.1-1.4,10.1-5.8
	c4.6-3.2,9-5.4,14-6.8c-5.2,6.8-10.1,15.1-15.7,26.4c-0.4,1-1.4,1.9-2.8,2.7c-11.2,7.1-19.8,15.1-25.6,23.9
	c-3.6,5.7-5.6,11.7-6,17.7c-7.5,1.7-15.4,4.5-23.3,8.5c-4.5,2.2-8.6,3.4-12.2,3.8c0-1.1,0.3-2.8,1.1-5.3
	c3.1-10.3,8.4-22.7,15.9-37.1c9.2-17.1,16.1-31.6,26.6-43.6c3.2-2.3,4.2-8.1,1.1-11.1l-0.3-0.3c-3.2-2.8-8.4-2.2-11.5,0.8
	c-6.1,4.9-15.3,21.7-20.4,31.3l-0.1,0.2c-7.4,13.8-14.5,28.4-19.6,40.9c-3.6,9-10.3,25.4-3.9,32.6c2.5,3.1,6.2,4.6,10.3,4.5
	c4.8-0.4,10.5-2.3,18-5.9c7.1-3.6,13.7-6.1,20.7-7.9c4.4,7.4,13.4,9.7,21.2,8.4c21.2-3.5,39.7-20.3,51.4-37.1
	c6.7-10.5,11.3-20.4,12.7-31.7c1.9,10.9,17.9,14.6,29.3,19.1c-9.7,5.8-23.1,15.8-29.3,23.3c-13.6,15.2-6.3,28.2,9,27.6
	c18.3,0.1,54.7-27.1,45.4-47.1l-0.1-0.3c-0.2-0.4-0.4-0.7-0.6-1.1l1.6-0.1c0.6,0,1,0,1.2,0.1c1,1.5,2.7,2.3,4.6,2.3h6.7L226.4,124.9
	z M90,155.5c-1.7-0.6-3.7-0.7-5.1-0.8c1.1-7.1,5.5-13.6,11.7-19.3C94,142,90.6,152.2,90,155.5z M115.8,154.6
	c-4.2,3.4-8.7,6-13.6,7.8c-0.2,0.1-0.4,0.2-0.7,0.3c0.1-0.4,0.3-0.9,0.3-1.3c0.9-7.5,10.1-29.6,14.5-37.8h0.1l1.3-2.6
	c1.4-0.8,3.4-1.9,5.2-2.9c1.7-0.8,3.3-1.5,5-2l0.5-0.2c5.9-2.5,4.2-10.9-1.7-11.4c2-3.3,4.2-7,6.4-10.7c2.1-3.3,3.1-7.1,0.9-10.1
	c11-1.1,13.4,6.5,13.6,15.9C147,121.4,135.5,138.5,115.8,154.6z M199.9,145.7c-6.4,8.4-16.1,16-26.5,19c-2.2,0.7-5.5,0.9-7.9,0.2
	c-0.2-1,0.1-2,0.5-2.9c5.5-9.9,24.5-23.3,35.7-28.8c1.1,0.9,1.4,1.4,1.5,1.5c0.5,1.7,0.6,2.4,0.6,2.5
	C203.8,139.5,202.5,142.3,199.9,145.7z"/>
</svg>
