<?xml version="1.0" encoding="utf-8"?>
<!-- Generator: Adobe Illustrator 28.3.0, SVG Export Plug-In . SVG Version: 6.00 Build 0)  -->
<svg version="1.1" id="Capa_1" xmlns="http://www.w3.org/2000/svg" xmlns:xlink="http://www.w3.org/1999/xlink" x="0px" y="0px"
	 viewBox="0 0 32 21" style="enable-background:new 0 0 32 21;" xml:space="preserve">
<style type="text/css">
	.st0{fill:#FFFFFF;}
</style>
<g>
	<path class="st0" d="M14,0C6.3,0,0,6.3,0,14c0,0,0,0.1,0,0.1c0,0.1,0,0.3,0,0.4C0,18.1,2.9,21,6.5,21s6.5-2.9,6.5-6.5S10.1,8,6.5,8
		C5.3,8,4.1,8.4,3.1,9C5,4.9,9.2,2,14,2c0.6,0,1-0.4,1-1C15,0.4,14.6,0,14,0z"/>
	<path class="st0" d="M31,0c-7.7,0-14,6.3-14,14c0,0,0,0.1,0,0.1c0,0.1,0,0.3,0,0.4c0,3.6,2.9,6.5,6.5,6.5s6.5-2.9,6.5-6.5
		S27.1,8,23.5,8c-1.2,0-2.4,0.4-3.4,1C22,4.9,26.2,2,31,2c0.6,0,1-0.4,1-1C32,0.4,31.6,0,31,0z"/>
</g>
</svg>
