<?xml version="1.0" encoding="utf-8"?>
<!-- Generator: Adobe Illustrator 28.3.0, SVG Export Plug-In . SVG Version: 6.00 Build 0)  -->
<svg version="1.1" id="Layer_1" xmlns="http://www.w3.org/2000/svg" xmlns:xlink="http://www.w3.org/1999/xlink" x="0px" y="0px"
	 viewBox="0 0 969.9 144.4" style="enable-background:new 0 0 969.9 144.4;" xml:space="preserve">
<style type="text/css">
	.st0{fill:#1A5F7D;}
	.st1{fill:#EEE8A9;}
	.st2{fill:none;stroke:#1A5F7D;stroke-width:4;stroke-miterlimit:10;}
	.st3{fill:none;stroke:#FFFFFF;stroke-width:4;stroke-miterlimit:10;}
</style>
<g>
	<g>
		<rect x="873.6" y="48.1" class="st1" width="96.3" height="96.3"/>
	</g>
	<g>
		<path d="M31.4,96.3c-1,0-1.8-0.3-2.5-1c-0.6-0.7-1-1.5-1-2.4V21.6H3.4c-1,0-1.8-0.3-2.5-1c-0.6-0.7-1-1.5-1-2.4V3.4
			c0-1,0.3-1.8,1-2.5c0.6-0.6,1.5-1,2.5-1h74c1,0,1.8,0.3,2.5,1c0.6,0.6,1,1.5,1,2.5v14.7c0,0.9-0.3,1.7-1,2.4c-0.6,0.7-1.5,1-2.5,1
			H53v71.3c0,0.9-0.3,1.7-1,2.4c-0.6,0.7-1.5,1-2.5,1H31.4z"/>
		<path d="M96.8,96.3c-1,0-1.8-0.3-2.5-1c-0.6-0.7-1-1.5-1-2.4V3.4c0-1,0.3-1.8,1-2.5c0.6-0.6,1.5-1,2.5-1h37.4
			c11.9,0,21.3,2.7,28.1,8.2c6.8,5.5,10.2,13.2,10.2,23.2c0,6.5-1.6,12-4.7,16.5c-3.1,4.5-7.2,7.9-12.4,10.2l18.8,33.8
			c0.3,0.6,0.4,1.1,0.4,1.5c0,0.7-0.3,1.4-0.9,2c-0.6,0.6-1.3,0.9-2,0.9h-18.3c-1.7,0-3-0.4-3.9-1.3c-0.8-0.9-1.4-1.7-1.8-2.4
			l-15.7-30.3h-14v30.5c0,0.9-0.3,1.7-1,2.4s-1.5,1-2.5,1H96.8z M118.2,42.8H134c4.3,0,7.5-1.1,9.7-3.2c2.2-2.1,3.2-5,3.2-8.5
			s-1-6.5-3.1-8.7c-2.1-2.2-5.3-3.3-9.8-3.3h-15.8V42.8z"/>
		<path d="M183,96.3c-0.7,0-1.4-0.3-2-0.9c-0.6-0.6-0.9-1.3-0.9-2c0-0.5,0-0.9,0.1-1.2l32.3-88.3c0.3-1,0.8-1.9,1.7-2.7
			c0.9-0.8,2.1-1.2,3.6-1.2h20.4c1.6,0,2.8,0.4,3.6,1.2c0.9,0.8,1.4,1.7,1.7,2.7l32.2,88.3c0.2,0.4,0.3,0.8,0.3,1.2
			c0,0.7-0.3,1.4-0.9,2c-0.6,0.6-1.3,0.9-2.1,0.9h-16.9c-1.4,0-2.4-0.3-3.1-1c-0.7-0.7-1.1-1.3-1.3-1.9l-5.4-14h-36.7l-5.2,14
			c-0.2,0.6-0.6,1.2-1.2,1.9c-0.6,0.7-1.7,1-3.3,1H183z M215.3,59.6h25.6l-12.8-36.3L215.3,59.6z"/>
		<path d="M301.8,96.3c-1,0-1.8-0.3-2.5-1c-0.6-0.7-1-1.5-1-2.4V21.6h-24.5c-1,0-1.8-0.3-2.5-1c-0.6-0.7-1-1.5-1-2.4V3.4
			c0-1,0.3-1.8,1-2.5c0.6-0.6,1.5-1,2.5-1h74c1,0,1.8,0.3,2.5,1c0.6,0.6,1,1.5,1,2.5v14.7c0,0.9-0.3,1.7-1,2.4c-0.6,0.7-1.5,1-2.5,1
			h-24.5v71.3c0,0.9-0.3,1.7-1,2.4c-0.6,0.7-1.5,1-2.5,1H301.8z"/>
		<path d="M388.5,96.3c-1,0-1.8-0.3-2.5-1c-0.6-0.7-1-1.5-1-2.4V21.6h-24.5c-1,0-1.8-0.3-2.5-1c-0.6-0.7-1-1.5-1-2.4V3.4
			c0-1,0.3-1.8,1-2.5c0.6-0.6,1.5-1,2.5-1h74c1,0,1.8,0.3,2.5,1c0.6,0.6,1,1.5,1,2.5v14.7c0,0.9-0.3,1.7-1,2.4c-0.6,0.7-1.5,1-2.5,1
			h-24.5v71.3c0,0.9-0.3,1.7-1,2.4c-0.6,0.7-1.5,1-2.5,1H388.5z"/>
		<path d="M435.2,96.3c-0.7,0-1.4-0.3-2-0.9c-0.6-0.6-0.9-1.3-0.9-2c0-0.5,0-0.9,0.1-1.2l32.3-88.3c0.3-1,0.8-1.9,1.7-2.7
			c0.9-0.8,2.1-1.2,3.6-1.2h20.4c1.6,0,2.8,0.4,3.6,1.2c0.9,0.8,1.4,1.7,1.7,2.7l32.2,88.3c0.2,0.4,0.3,0.8,0.3,1.2
			c0,0.7-0.3,1.4-0.9,2c-0.6,0.6-1.3,0.9-2.1,0.9h-16.9c-1.4,0-2.4-0.3-3.1-1c-0.7-0.7-1.1-1.3-1.3-1.9l-5.4-14h-36.7l-5.2,14
			c-0.2,0.6-0.6,1.2-1.2,1.9c-0.6,0.7-1.7,1-3.3,1H435.2z M467.6,59.6h25.6l-12.8-36.3L467.6,59.6z"/>
		<path d="M542.7,96.3c-0.9,0-1.7-0.3-2.4-1s-1-1.5-1-2.4V3.4c0-1,0.3-1.8,1-2.5c0.7-0.6,1.5-1,2.4-1h14.9c1.6,0,2.7,0.4,3.4,1.2
			c0.7,0.8,1.2,1.4,1.4,1.9l24.2,43.3L610.8,3c0.3-0.5,0.8-1.1,1.4-1.9c0.7-0.8,1.8-1.2,3.4-1.2h14.7c1,0,1.9,0.3,2.5,1
			c0.7,0.6,1,1.5,1,2.5v89.4c0,0.9-0.3,1.7-1,2.4c-0.7,0.7-1.5,1-2.5,1h-16.4c-1,0-1.9-0.3-2.5-1c-0.7-0.7-1-1.5-1-2.4V41.3
			L594.9,70c-0.5,0.8-1.1,1.6-1.8,2.2c-0.7,0.6-1.7,1-3,1H583c-1.3,0-2.3-0.3-3-1c-0.7-0.6-1.3-1.4-1.8-2.2l-15.5-28.8v51.6
			c0,0.9-0.3,1.7-1,2.4c-0.6,0.7-1.5,1-2.5,1H542.7z"/>
		<path d="M656.6,96.3c-1,0-1.8-0.3-2.5-1c-0.6-0.7-1-1.5-1-2.4V3.4c0-1,0.3-1.8,1-2.5c0.6-0.6,1.5-1,2.5-1h64.2c1,0,1.8,0.3,2.5,1
			c0.6,0.6,1,1.5,1,2.5v12.9c0,1-0.3,1.8-1,2.5c-0.6,0.6-1.5,1-2.5,1h-43.9v18.6h40.9c1,0,1.8,0.3,2.5,1c0.6,0.7,1,1.5,1,2.5v12
			c0,0.9-0.3,1.7-1,2.4c-0.6,0.7-1.5,1-2.5,1h-40.9v19.1h45c1,0,1.8,0.3,2.5,1c0.6,0.6,1,1.5,1,2.5v12.9c0,0.9-0.3,1.7-1,2.4
			c-0.6,0.7-1.5,1-2.5,1H656.6z"/>
		<path d="M744.5,96.3c-1,0-1.8-0.3-2.5-1c-0.6-0.7-1-1.5-1-2.4V3.4c0-1,0.3-1.8,1-2.5c0.6-0.6,1.5-1,2.5-1h14.6
			c1.6,0,2.7,0.3,3.4,1c0.7,0.7,1.1,1.2,1.3,1.6l33.6,52.8v-52c0-1,0.3-1.8,1-2.5c0.6-0.6,1.5-1,2.5-1h16.5c1,0,1.8,0.3,2.5,1
			c0.6,0.6,1,1.5,1,2.5v89.3c0,1-0.3,1.9-1,2.5c-0.6,0.7-1.5,1-2.5,1h-14.7c-1.5,0-2.5-0.4-3.2-1.1c-0.7-0.7-1.1-1.2-1.3-1.5
			l-33.6-50.9v50.1c0,0.9-0.3,1.7-1,2.4c-0.6,0.7-1.5,1-2.5,1H744.5z"/>
		<path d="M864.6,96.3c-1,0-1.8-0.3-2.5-1c-0.6-0.7-1-1.5-1-2.4V21.6h-24.5c-1,0-1.8-0.3-2.5-1c-0.6-0.7-1-1.5-1-2.4V3.4
			c0-1,0.3-1.8,1-2.5c0.6-0.6,1.5-1,2.5-1h74c1,0,1.8,0.3,2.5,1c0.6,0.6,1,1.5,1,2.5v14.7c0,0.9-0.3,1.7-1,2.4c-0.6,0.7-1.5,1-2.5,1
			h-24.5v71.3c0,0.9-0.3,1.7-1,2.4c-0.6,0.7-1.5,1-2.5,1H864.6z"/>
		<path d="M930,96.3c-1,0-1.8-0.3-2.5-1c-0.6-0.7-1-1.5-1-2.4V3.4c0-1,0.3-1.8,1-2.5c0.6-0.6,1.5-1,2.5-1h18.4c1,0,1.9,0.3,2.5,1
			c0.7,0.6,1,1.5,1,2.5v89.4c0,0.9-0.3,1.7-1,2.4c-0.7,0.7-1.5,1-2.5,1H930z"/>
	</g>
</g>
</svg>
