<?xml version="1.0" encoding="UTF-8"?>
<svg id="Layer_1" data-name="Layer 1" xmlns="http://www.w3.org/2000/svg" viewBox="0 0 294.25 294.25">
  <defs>
    <style>
      .cls-1 {
        fill: white;
      }

      .cls-1, .cls-2 {
        stroke-width: 0px;
      }

      .cls-2 {
        fill: #0074A1;
      }
    </style>
  </defs>
  <circle class="cls-1" cx="147.12" cy="147.12" r="147.12"/>
  <g>
    <path class="cls-2" d="M140.29,134.95c-8.26-2.75-12.56-4.3-12.56-4.3-11.7-16.86-18.93-16.69-18.93-16.69h-18.24c-13.25,3.79-21.68,21.68-24.61,29.08-2.93,7.4-.17,9.64,3.96,10.84,4.13,1.2,5.95-1.2,5.95-1.2,4.75-12.22,10.05-19.1,10.05-19.1l-1.03,24.95s-8.6,35.62-9.46,43.71c-.86,8.09,6.54,8.26,6.54,8.26,4.47,1.03,6.71-3.44,6.71-3.44,0,0,8.78-42.5,9.29-44.83.52-2.32,2.75-1.81,2.75-1.81l.52,44.91s1.89,5.16,7.4,5.16,6.19-3.96,6.19-3.96c.86-15.14.17-50.76.17-50.76l-.69-20.99c3.61,6.19,6.54,7.57,6.54,7.57,0,0,7.92,1.72,13.77,3.96s7.74-3.44,7.74-3.44c2.06-4.13-2.06-7.92-2.06-7.92Z"/>
    <circle class="cls-2" cx="99.6" cy="96.68" r="13.08"/>
    <path class="cls-2" d="M228.3,143.04c-2.93-7.4-11.36-25.3-24.61-29.08h-18.24s-7.23-.17-18.93,16.69c0,0-4.3,1.55-12.56,4.3,0,0-4.13,3.79-2.06,7.92,0,0,1.89,5.68,7.74,3.44s13.77-3.96,13.77-3.96c0,0,2.93-1.38,6.54-7.57l-.69,20.99s-.69,35.62.17,50.76c0,0,.69,3.96,6.19,3.96s7.4-5.16,7.4-5.16l.52-44.91s2.24-.52,2.75,1.81c.52,2.32,9.29,44.83,9.29,44.83,0,0,2.24,4.47,6.71,3.44,0,0,7.4-.17,6.54-8.26s-9.46-43.71-9.46-43.71l-1.03-24.95s5.3,6.88,10.05,19.1c0,0,1.82,2.41,5.95,1.2s6.88-3.44,3.96-10.84Z"/>
    <path class="cls-2" d="M194.64,109.76c7.22,0,13.08-5.86,13.08-13.08s-5.85-13.08-13.08-13.08-13.08,5.86-13.08,13.08,5.86,13.08,13.08,13.08Z"/>
  </g>
</svg>