<?xml version="1.0" encoding="UTF-8"?>
<svg id="Layer_1" data-name="Layer 1" xmlns="http://www.w3.org/2000/svg" viewBox="0 0 294.25 294.25">
  <defs>
    <style>
      .cls-1 {
        fill: white;
      }

      .cls-1, .cls-2 {
        stroke-width: 0px;
      }

      .cls-2 {
        fill: #0074A1;
      }
    </style>
  </defs>
  <circle class="cls-1" cx="147.12" cy="147.12" r="147.12"/>
  <g>
    <path class="cls-2" d="M151.44,161.76c-2.58-4.39-9.42-3.1-9.42-3.1l-14.71,7.36c-18.84-17.29-32.91-15.87-40.14-10.97-7.23,4.9-4.39,52.66-4.39,52.66h30.72c2.32-18.33,2.32-31.49,2.32-31.49,0,0,5.42,4,7.74,5.68,2.32,1.68,6.84.13,6.84.13l20-11.23s3.61-4.65,1.03-9.03Z"/>
    <circle class="cls-2" cx="100.95" cy="131.65" r="16.36"/>
    <circle class="cls-2" cx="193.18" cy="131.65" r="16.36"/>
    <path class="cls-2" d="M210.68,165.63c-1.68-12.65-10.2-13.83-10.2-13.83h-10.45c-8,1.4-21.29,19.25-21.29,19.25,0,0-10.35,4.46-17.68,6.45-8.26,2.25-6.71,17.94,6.07,14.33,12.78-3.61,21.55-8.65,21.55-8.65-.52,8.39,1.03,24.52,1.03,24.52h32.26s.39-29.42-1.29-42.07Z"/>
    <path class="cls-2" d="M130.15,121.36s-6.39,13.76-1.68,11.49c4.71-2.27,14.45-6.97,14.45-6.97,0,0,22.33,2.06,30.2-11.23,7.87-13.29-2.19-21.42-9.55-25.17s-23.23-4.9-35.1,2.58c-11.87,7.49-11.23,21.17,1.68,29.3ZM158.76,105.71c.26-1.73,1.67-3.14,3.4-3.4,2.77-.42,5.12,1.93,4.7,4.7-.26,1.73-1.67,3.14-3.4,3.4-2.77.42-5.12-1.93-4.7-4.7ZM143.95,105.71c.26-1.73,1.67-3.14,3.4-3.4,2.77-.42,5.12,1.93,4.7,4.7-.26,1.73-1.67,3.14-3.4,3.4-2.77.42-5.12-1.93-4.7-4.7ZM129.14,105.71c.26-1.73,1.67-3.14,3.4-3.4,2.77-.42,5.12,1.93,4.7,4.7-.26,1.73-1.67,3.14-3.4,3.4-2.77.42-5.12-1.93-4.7-4.7Z"/>
  </g>
</svg>