<?xml version="1.0" encoding="UTF-8"?>
<svg id="Layer_1" data-name="Layer 1" xmlns="http://www.w3.org/2000/svg" viewBox="0 0 294.25 294.25">
  <defs>
    <style>
      .cls-1 {
        fill: white;
      }

      .cls-1, .cls-2 {
        stroke-width: 0px;
      }

      .cls-2 {
        fill: #0074A1;
      }
    </style>
  </defs>
  <circle class="cls-1" cx="147.12" cy="147.12" r="147.12"/>
  <g>
    <circle class="cls-2" cx="134.6" cy="69.37" r="16.36"/>
    <circle class="cls-2" cx="67.27" cy="185.92" r="16.36"/>
    <path class="cls-2" d="M141.27,167.58s1.38,3.1-1.72-13.25c-3.1-16.35,9.81-17.72,9.81-17.72l1.6-18.58,21.46,16.69h19.62c-37.17-36.48-44.22-40.44-44.22-40.44-18.24-1.72-32.69,0-32.69,0-8.78,2.93-9.29,11.87-9.29,11.87l.86,61.67,34.59-.23Z"/>
    <path class="cls-2" d="M239.7,201.14c4.3-1.2,4.65-6.71,4.65-6.71-.17-8.26-7.06-9.64-7.06-9.64-35.96-1.03-62.46-3.96-62.46-3.96l-7.57-20.13,34.76-1.72s10.5,1.03,10.84-8.26-7.4-10.15-7.4-10.15c0,0-42.16,1.03-51.45,1.55-9.29.52-9.12,6.14-9.12,6.14-.47,8.15,4.05,23.98,4.05,23.98-.95,2.24-3.36,1.2-3.36,1.2h-44.57s-10.5,2.41-11.18,13.77,7.57,15.07,7.57,15.07h-55.92v5.4h211.31v-6.54h-13.08Z"/>
    <polygon class="cls-2" points="104.79 241.23 120.97 241.23 123.89 213.7 105.82 213.7 104.79 241.23"/>
    <polygon class="cls-2" points="131.46 241.23 147.12 238.3 147.12 213.7 129.57 213.7 131.46 241.23"/>
  </g>
</svg>